<?xml version="1.0" standalone="no"?>
<!DOCTYPE svg PUBLIC "-//W3C//DTD SVG 20010904//EN"
 "http://www.w3.org/TR/2001/REC-SVG-20010904/DTD/svg10.dtd">
<svg version="1.0" xmlns="http://www.w3.org/2000/svg"
 width="700.000000pt" height="700.000000pt" viewBox="0 0 700.000000 700.000000"
 preserveAspectRatio="xMidYMid meet">
<metadata>
Created by potrace 1.14, written by Peter Selinger 2001-2017
</metadata>
<g transform="translate(0.000000,700.000000) scale(0.100000,-0.100000)"
fill="#000000" stroke="none">
<path d="M4055 5872 c-304 -28 -576 -182 -765 -434 -67 -88 -147 -244 -181
-353 -12 -38 -23 -71 -24 -72 -1 -2 -27 2 -59 7 -133 22 -385 29 -535 16 -242
-21 -450 -74 -639 -162 -41 -19 -75 -34 -77 -34 -2 0 -36 -19 -77 -42 -307
-176 -574 -451 -758 -783 -203 -365 -316 -739 -325 -1082 -4 -152 -11 -194
-42 -260 -25 -52 -101 -133 -125 -133 -8 0 -9 -3 -2 -10 26 -26 121 -13 231
30 l76 29 45 -52 c91 -104 259 -264 345 -328 92 -69 171 -113 269 -149 74 -28
149 -95 185 -167 l27 -57 3 -355 c2 -196 3 -406 3 -468 l0 -111 433 0 c404 0
437 -1 512 -20 144 -37 278 -73 390 -104 106 -29 341 -69 350 -59 3 2 -39 28
-93 58 -53 29 -108 59 -122 68 -14 8 -91 52 -172 97 -82 45 -148 86 -148 91 0
4 4 6 8 3 5 -3 96 -6 203 -6 230 -2 324 -12 480 -50 63 -16 140 -32 170 -35
96 -10 159 -13 159 -8 0 2 -51 28 -112 58 -312 148 -582 218 -805 207 -228
-10 -219 -15 -316 186 -89 185 -227 486 -227 495 0 3 87 48 193 100 200 99
320 170 447 265 57 42 351 285 447 367 6 6 37 28 68 50 31 22 112 81 178 131
67 51 123 91 125 89 4 -4 31 -179 36 -235 3 -29 7 -55 10 -58 3 -3 6 0 6 6 0
18 61 143 98 198 22 34 65 75 124 119 312 233 509 542 562 880 14 88 15 318 1
395 -16 95 -47 244 -64 305 -26 93 -22 156 14 230 40 81 105 141 209 194 l87
44 137 -6 c75 -3 175 -13 222 -22 47 -8 101 -18 120 -21 19 -3 42 -7 50 -9 8
-2 29 -7 47 -10 53 -9 351 -82 473 -116 63 -17 144 -40 180 -50 36 -9 144 -43
240 -74 96 -31 183 -59 193 -62 14 -4 10 7 -17 53 -67 111 -136 167 -299 244
-215 100 -550 193 -992 274 -191 36 -183 33 -191 58 -26 82 -126 259 -180 318
-12 14 -35 39 -51 56 -111 121 -299 223 -478 259 -76 15 -213 24 -280 17z
m-1940 -4028 c59 -38 74 -53 95 -97 13 -29 59 -126 102 -216 43 -89 78 -164
78 -166 0 -2 29 -65 65 -140 36 -76 63 -140 60 -143 -6 -6 -280 -3 -681 7
l-32 1 2 311 3 310 25 24 c122 113 185 164 197 159 8 -2 47 -25 86 -50z"/>
</g>
</svg>
